<svg xmlns="http://www.w3.org/2000/svg" xmlns:xlink="http://www.w3.org/1999/xlink" viewBox="0,0,256,256" width="100px" height="100px"><g fill="#4682b4" fill-rule="nonzero" stroke="none" stroke-width="1" stroke-linecap="butt" stroke-linejoin="miter" stroke-miterlimit="10" stroke-dasharray="" stroke-dashoffset="0" font-family="none" font-weight="none" font-size="none" text-anchor="none" style="mix-blend-mode: normal"><g transform="scale(2.56,2.56)"><path d="M34.7207,10.8418c-0.22106,-0.00045 -0.43603,0.07235 -0.61133,0.20703c-12.7952,9.84254 -29.7793,25.18359 -29.7793,25.18359c-0.2053,0.18585 -0.32434,0.4485 -0.32879,0.72538c-0.00444,0.27689 0.10612,0.54322 0.30535,0.73556c0,0 3.82592,3.66746 9.625,9.06641c-0.02681,0.10187 -0.03736,0.20734 -0.03125,0.3125c0,0 0.23757,4.72756 1.33398,19.25c0.01587,0.21505 0.10082,0.4192 0.24219,0.58203c0,0 6.42763,7.38533 19.02344,22.44531c0.00194,0.00196 0.0039,0.00391 0.00586,0.00586c0.0126,0.0147 0.02563,0.02903 0.03906,0.04297c0.00892,0.00995 0.01803,0.01971 0.02734,0.0293c0.01085,0.01001 0.02192,0.01978 0.0332,0.0293c0.01584,0.01419 0.03212,0.02787 0.04883,0.04102c0.00065,0.00065 0.0013,0.0013 0.00195,0.00195c0.04546,0.03467 0.09382,0.06539 0.14453,0.0918c0.00519,0.00265 0.01039,0.00525 0.01563,0.00781c0.00324,0.00197 0.0065,0.00393 0.00977,0.00586c0.02492,0.01212 0.05033,0.0232 0.07617,0.0332c0.02059,0.00785 0.04144,0.01501 0.0625,0.02148c0.04218,0.01392 0.08525,0.02501 0.12891,0.0332c0.09866,0.01756 0.19939,0.02019 0.29883,0.00781c0.00065,0 0.0013,0 0.00195,0c0.02028,-0.00264 0.04047,-0.00589 0.06055,-0.00977c9.8063,-1.87332 19.28109,-4.43906 27.21484,-6.85547l6.73242,6.11719c0.27923,0.25331 0.67718,0.32806 1.0293,0.19336l13.69336,-5.23437c0.33757,-0.12897 0.57931,-0.43002 0.63234,-0.78747c0.05303,-0.35746 -0.0909,-0.71572 -0.37648,-0.93714l-5.91992,-4.5918c2.77404,-1.00639 4.42383,-1.65234 4.42383,-1.65234c0.36992,-0.1467 0.61766,-0.49876 0.63086,-0.89648c0.65746,-19.45418 2.16557,-34.1994 2.2832,-35.33203c2.30429,1.4385 4.70679,2.92879 7.29102,4.50781c0.30505,0.20284 0.69658,0.22267 1.02056,0.05168c0.32398,-0.17099 0.52855,-0.50542 0.53322,-0.87172c0.00467,-0.3663 -0.1913,-0.70584 -0.51081,-0.88504c-11.95361,-7.30395 -20.92082,-13.16987 -25.83398,-16.43555c-0.10578,-0.81007 -0.10745,-1.67258 -0.10547,-2.57812c0.008,-3.09779 0.01739,-6.19671 0.02539,-9.29492c0.00128,-0.10252 -0.01321,-0.20462 -0.04297,-0.30273c-0.03632,-0.44647 -0.36508,-0.81434 -0.80469,-0.90039c-0.87394,-0.15926 -2.10901,-0.74288 -3.31641,-1.35156c0.06707,0.03384 -0.13508,-0.2733 -0.79297,-0.4668c-0.47857,-0.14086 -0.8535,-0.06509 -1.07812,-0.0332h-0.00195c-2.27229,0.31863 -4.54158,0.66615 -6.80664,1.03906c-0.01888,-0.00053 -0.03776,-0.00053 -0.05664,0c-0.46003,0.01985 -0.84706,0.35124 -0.9375,0.80274c-0.00134,0.0052 -0.00265,0.01041 -0.00391,0.01563c-0.00499,0.02652 -0.00889,0.05324 -0.01172,0.08008c-0.00153,0.01234 -0.00283,0.02472 -0.00391,0.03711c0,0.0013 0,0.0026 0,0.00391c-0.00068,0.00928 -0.00127,0.02 -0.00195,0.0293c-0.00093,0.01366 -0.00158,0.02733 -0.00195,0.04102c-0.12985,1.79523 -0.16481,3.92825 -0.06055,5.87305l-19.1875,-8.1543c-0.12291,-0.05239 -0.25507,-0.07962 -0.38867,-0.08008zM34.88672,13l26.74023,11.36328c-2.00268,1.8391 -4.09855,3.70047 -6.22656,5.55469c-12.71964,-6.93111 -23.73438,-12.45975 -25.21484,-13.20117c1.59064,-1.28261 3.1698,-2.53275 4.70117,-3.7168zM66.2168,15.00781c-0.00751,2.83008 -0.01613,5.65965 -0.02344,8.49024c-0.00085,0.38941 0.00099,0.79256 0.00977,1.19922c-1.2837,-0.86086 -2.07939,-1.40414 -2.09961,-1.41797c-0.0013,-0.00131 -0.0026,-0.00261 -0.00391,-0.00391c-0.00026,-0.00018 -0.05469,-0.03516 -0.05469,-0.03516c-0.02774,-0.01901 -0.05642,-0.03661 -0.08594,-0.05273c-0.02858,-0.01575 -0.05791,-0.03009 -0.08789,-0.04297h-0.00195l-3.95117,-1.67969c-0.11554,-1.55945 0.05236,-3.87421 0.01367,-5.93945h0.00195c0.20236,-0.01444 0.46053,-0.03854 0.76563,-0.06836c0.61019,-0.05963 1.40671,-0.14455 2.24414,-0.22656c1.2269,-0.12016 2.41666,-0.19576 3.27344,-0.22266zM28.49609,18.10156c0.36817,0.18394 12.18945,6.10093 25.27539,13.21289c-1.93849,1.67099 -3.86431,3.30667 -5.79297,4.91602c-11.92174,-6.98986 -22.82278,-13.78309 -23.91797,-14.4668c1.46787,-1.22797 2.94159,-2.44338 4.43555,-3.66211zM22.44922,23.11719c0.29903,0.18687 11.72303,7.31611 23.89648,14.46875c-2.065,1.70961 -4.05185,3.33517 -5.97461,4.88672c-11.05835,-7.59532 -21.56688,-14.79693 -22.51562,-15.44727c1.46734,-1.26115 2.99871,-2.56353 4.59375,-3.9082zM16.28711,28.37305c0.5391,0.36959 11.42177,7.83054 22.46094,15.41211c-2.18798,1.75472 -4.19702,3.3471 -5.98828,4.75195c-10.9489,-8.9736 -19.48616,-15.21894 -20.92969,-16.26758c1.37215,-1.20662 2.71734,-2.39228 4.45703,-3.89648zM63.18164,29.81055c0.27841,0.01802 0.96587,0.47164 1.32813,0.68164c2.959,1.716 5.80187,3.64095 8.67188,5.50195c3.40721,2.20904 6.80534,4.46418 10.35352,6.44336c-0.49645,5.48351 -1.46739,17.36081 -1.97852,31.85352c-0.23134,0.09084 -1.86023,0.72175 -4.48437,1.66602l0.69141,-21.04883c0.00895,-0.27024 -0.0919,-0.53258 -0.27956,-0.72724c-0.18766,-0.19465 -0.44615,-0.30503 -0.71653,-0.30596c-0.07421,-0.0004 -0.14823,0.00746 -0.2207,0.02344c-5.45098,1.22095 -12.70703,2.60742 -12.70703,2.60742c-0.46149,0.08893 -0.7988,0.4872 -0.81055,0.95703l-0.625,23.33594c-7.56465,2.30494 -16.6363,4.7784 -26.16602,6.6582c-0.02479,-1.7414 -0.27185,-17.74345 -1.22852,-33.42773c8.82303,-7.41202 15.45947,-14.14921 21.55078,-19.1582c2.124,-1.746 4.4133,-3.29402 6.5293,-5.04102c0.021,-0.01725 0.05202,-0.0221 0.0918,-0.01953zM10.28711,33.61719c0.54305,0.39266 9.45798,6.86004 20.85547,16.18359c-3.30683,2.57708 -5.62591,4.34092 -5.95312,4.58789c-10.74304,-9.76841 -18.09203,-16.8107 -18.69922,-17.39453c0.34356,-0.30943 1.78837,-1.60208 3.79687,-3.37695zM57.01367,52.78516c-0.05911,0.00195 -0.11794,0.00914 -0.17578,0.02148l-14.3125,3.01367c-0.47255,0.0989 -0.807,0.52127 -0.79492,1.00391c0,0 0.34219,12.83497 0.54883,18.33008c0.0111,0.29417 0.15125,0.56851 0.38309,0.74992c0.23184,0.18141 0.53183,0.25146 0.82004,0.19149c0,0 7.88606,-1.64417 13.83984,-3.375c0.42656,-0.12411 0.72013,-0.51473 0.7207,-0.95898v-17.97656c0.00009,-0.27036 -0.10929,-0.52924 -0.3032,-0.71764c-0.19392,-0.1884 -0.45584,-0.29025 -0.72609,-0.28236zM54.98633,55.24023l0.05664,5.26953c-1.02449,0.24233 -2.46011,0.55447 -4.03125,0.88672c-0.05286,-1.87729 -0.1213,-5.23506 -0.12305,-5.29297zM75.72461,56.10938l-0.67578,20.55859c-2.82116,0.99206 -6.40809,2.18961 -10.62695,3.50586l0.58398,-21.86523c0.72623,-0.13931 5.88034,-1.15122 10.71875,-2.19922zM48.89844,56.52148c0.0068,0.22682 0.06788,3.33442 0.12305,5.31836c-2.65969,0.53835 -4.62917,0.91754 -5.10937,1.00977c-0.04998,-1.80472 -0.1476,-4.92088 -0.15625,-5.24414zM55.06445,62.54688l0.08203,7.56641c-0.9411,0.32856 -2.37941,0.70611 -3.9043,1.08008c-0.03064,-2.23015 -0.09674,-4.538 -0.18359,-7.75977c1.5552,-0.32084 2.90441,-0.61985 4.00586,-0.88672zM49.06836,63.86914c0.08776,3.30089 0.15938,5.71966 0.18555,7.79492c-2.60838,0.59935 -4.67469,1.0262 -5.04687,1.10156c-0.08566,-2.58157 -0.14422,-4.69886 -0.23437,-7.89258c0.23199,-0.04447 2.48094,-0.47768 5.0957,-1.00391zM72.79492,65.9668c-0.10062,0.00325 -0.20153,0.02003 -0.30078,0.05078c-0.435,0.138 -0.64589,0.4818 -0.71289,0.5918c-0.313,0.509 -0.19947,0.93267 -0.10547,1.13867c0.168,0.372 0.53036,0.62044 0.94336,0.64844c0.026,0.001 0.05017,0.00195 0.07617,0.00195c0.402,0 0.78891,-0.20878 1.00391,-0.55078c0.061,-0.098 0.10381,-0.19697 0.13281,-0.29297c0.035,-0.065 0.06203,-0.13303 0.08203,-0.20703c0.096,-0.353 -0.03387,-0.81045 -0.29687,-1.06445c-0.22425,-0.21525 -0.52039,-0.32616 -0.82227,-0.31641zM76.25195,78.41602l5.49805,4.26172l-11.45703,4.38086l-5.4082,-4.91406c4.43447,-1.38595 8.22286,-2.65381 11.19336,-3.70312c0.05858,-0.00335 0.11674,-0.01184 0.17383,-0.02539z"></path></g></g></svg>