<svg xmlns="http://www.w3.org/2000/svg"  viewBox="0 0 100 100" width="50px" height="50px"><path fill="#ee3e54" d="M12.725,26.858c-1.105,0-2,0.895-2,2s0.895,2,2,2s2-0.895,2-2S13.83,26.858,12.725,26.858z"/><path fill="#f1bc19" d="M76.725,11.858c-0.551,0-1,0.449-1,1s0.449,1,1,1s1-0.449,1-1S77.276,11.858,76.725,11.858z"/><path fill="#fce0a2" d="M49.725,12.608c-20.434,0-37,16.566-37,37s16.566,37,37,37s37-16.566,37-37 S70.159,12.608,49.725,12.608z"/><path fill="#f1bc19" d="M82.725,10.858c-2.211,0-4,1.789-4,4s1.789,4,4,4s4-1.789,4-4S84.936,10.858,82.725,10.858z"/><path fill="#ee3e54" d="M86.725,21.858c-1.105,0-2,0.895-2,2s0.895,2,2,2s2-0.895,2-2S87.83,21.858,86.725,21.858z"/><path fill="#fbcd59" d="M80.725,73.858c-1.105,0-2,0.895-2,2s0.895,2,2,2s2-0.895,2-2S81.83,73.858,80.725,73.858z M14.725,58.858c-2.211,0-4,1.789-4,4s1.789,4,4,4s4-1.789,4-4S16.936,58.858,14.725,58.858z"/><path fill="#ee3e54" d="M24.725,84.858c-1.105,0-2,0.895-2,2s0.895,2,2,2s2-0.895,2-2S25.83,84.858,24.725,84.858z"/><path fill="#fff" d="M18.225,40.858c-1.379,0-2.5,1.121-2.5,2.5s1.121,2.5,2.5,2.5s2.5-1.121,2.5-2.5 S19.604,40.858,18.225,40.858z"/><path fill="#f1bc19" d="M20.725,64.858c-0.551,0-1,0.449-1,1s0.449,1,1,1s1-0.449,1-1S21.276,64.858,20.725,64.858z"/><path fill="#fff" d="M79.725,31.858c-0.551,0-1,0.449-1,1s0.449,1,1,1s1-0.449,1-1S80.276,31.858,79.725,31.858z"/><path fill="#7e96af" d="M64.3,72.3H35.7c-4.418,0-8-3.582-8-8V35.7c0-4.418,3.582-8,8-8h28.6c4.418,0,8,3.582,8,8v28.6	C72.3,68.718,68.718,72.3,64.3,72.3z"/><path fill="#472b29" d="M64.3,73H35.7c-4.797,0-8.7-3.903-8.7-8.7V35.7c0-4.797,3.903-8.7,8.7-8.7h28.6	c4.797,0,8.7,3.903,8.7,8.7v28.6C73,69.097,69.097,73,64.3,73z M35.7,28.4c-4.025,0-7.3,3.274-7.3,7.3v28.6	c0,4.025,3.274,7.3,7.3,7.3h28.6c4.025,0,7.3-3.274,7.3-7.3V35.7c0-4.025-3.274-7.3-7.3-7.3H35.7z"/><path fill="#472b29" d="M57.88,31.75h-4.194c-0.138,0-0.25-0.112-0.25-0.25s0.112-0.25,0.25-0.25h4.194	c0.138,0,0.25,0.112,0.25,0.25S58.018,31.75,57.88,31.75z"/><path fill="#472b29" d="M39.385,68.75H37.5c-3.446,0-6.25-2.804-6.25-6.25v-25c0-3.446,2.804-6.25,6.25-6.25h14.063	c0.138,0,0.25,0.112,0.25,0.25s-0.112,0.25-0.25,0.25H37.5c-3.171,0-5.75,2.58-5.75,5.75v25c0,3.171,2.579,5.75,5.75,5.75h1.885	c0.138,0,0.25,0.112,0.25,0.25S39.522,68.75,39.385,68.75z"/><path fill="#472b29" d="M62.5,68.75H43.589c-0.138,0-0.25-0.112-0.25-0.25s0.112-0.25,0.25-0.25H62.5	c3.171,0,5.75-2.579,5.75-5.75v-25c0-3.17-2.579-5.75-5.75-5.75h-1.488c-0.138,0-0.25-0.112-0.25-0.25s0.112-0.25,0.25-0.25H62.5	c3.446,0,6.25,2.804,6.25,6.25v25C68.75,65.946,65.946,68.75,62.5,68.75z"/><path fill="#fff" d="M50,36c-2.685,0-5.187,0.773-7.32,2.089l2.076,2.076c1.565-0.84,3.347-1.324,5.244-1.324	c6.153,0,11.159,5.006,11.159,11.159c0,6.153-5.006,11.159-11.159,11.159c-2.639,0-5.063-0.925-6.975-2.462L51.722,50L41.007,39.286	C37.95,41.856,36,45.703,36,50c0,2.685,0.773,5.187,2.089,7.32l2.076-2.076c-0.84-1.565-1.324-3.347-1.324-5.243	c0-2.639,0.925-5.063,2.462-6.975L48.278,50l-8.993,8.993C41.855,62.05,45.703,64,50,64c7.72,0,14-6.28,14-14	C64,42.28,57.72,36,50,36z"/><path fill="#472b29" d="M50,64.125c-4.171,0-8.111-1.841-10.811-5.052c-0.042-0.049-0.038-0.123,0.007-0.169L48.102,50	l-6.787-6.787c-1.537,1.96-2.349,4.304-2.349,6.787c0,1.821,0.44,3.565,1.31,5.184c0.025,0.049,0.017,0.109-0.021,0.147	l-2.076,2.077c-0.028,0.028-0.066,0.041-0.104,0.036c-0.038-0.004-0.071-0.026-0.092-0.059c-1.379-2.236-2.107-4.79-2.107-7.386	c0-4.17,1.841-8.11,5.052-10.81c0.05-0.042,0.123-0.04,0.169,0.007l10.715,10.714c0.023,0.023,0.036,0.055,0.036,0.088	s-0.013,0.065-0.036,0.088l-8.598,8.597c1.96,1.537,4.304,2.349,6.787,2.349c6.084,0,11.034-4.95,11.034-11.034	c0-6.084-4.95-11.034-11.034-11.034c-1.82,0-3.565,0.441-5.185,1.31c-0.051,0.024-0.108,0.017-0.148-0.022l-2.076-2.077	c-0.026-0.027-0.04-0.065-0.035-0.103c0.004-0.038,0.025-0.072,0.059-0.092c2.234-1.378,4.788-2.107,7.386-2.107	c7.788,0,14.125,6.336,14.125,14.125C64.125,57.788,57.788,64.125,50,64.125z M39.455,59c2.649,3.1,6.486,4.875,10.545,4.875	c7.65,0,13.875-6.225,13.875-13.875c0-7.651-6.225-13.875-13.875-13.875c-2.499,0-4.957,0.687-7.119,1.988l1.898,1.899	c1.633-0.86,3.39-1.296,5.221-1.296c6.222,0,11.284,5.062,11.284,11.284c0,6.222-5.063,11.284-11.284,11.284	c-2.587,0-5.026-0.861-7.053-2.49c-0.028-0.022-0.045-0.056-0.047-0.091s0.012-0.07,0.036-0.096L51.545,50L41,39.456	c-3.1,2.649-4.875,6.486-4.875,10.544c0,2.497,0.687,4.955,1.988,7.119l1.898-1.899c-0.86-1.632-1.296-3.387-1.296-5.22	c0-2.587,0.861-5.026,2.49-7.053c0.022-0.028,0.056-0.045,0.091-0.047c0.035,0.007,0.07,0.012,0.096,0.037l6.975,6.975	c0.048,0.049,0.048,0.128,0,0.177L39.455,59z"/></svg>